<svg width="24" height="24" viewBox="0 0 24 24" fill="none" xmlns="http://www.w3.org/2000/svg">
<path d="M15 17.0006L16.079 19.0446C16.144 19.1686 16.292 19.2236 16.43 19.2236C16.435 19.2236 16.439 19.2236 16.444 19.2226C17.23 19.1976 20.679 18.6126 21.943 16.3806C21.981 16.3156 22 16.2416 22 16.1646C22 11.8606 20.169 6.8826 19.229 6.0126C18.326 5.2826 17.214 4.7666 16.357 4.4406C16.05 4.3236 15.704 4.3646 15.433 4.5516C15.162 4.7376 15 5.0456 15 5.3746C15 5.7206 14.72 6.0006 14.374 6.0006C12.802 6.0006 11.198 6.0006 9.625 6.0006C9.28 6.0006 9 5.7206 9 5.3756C9 5.0466 8.838 4.7386 8.567 4.5516C8.296 4.3646 7.95 4.3236 7.643 4.4416C6.783 4.7706 5.665 5.2916 4.749 6.0316C3.831 6.8826 2 11.8616 2 16.1656C2 16.2416 2.019 16.3156 2.057 16.3816C3.322 18.6146 6.771 19.1986 7.556 19.2236C7.561 19.2246 7.565 19.2246 7.57 19.2246C7.709 19.2246 7.856 19.1686 7.921 19.0456L9 17.0006" stroke="#C8C8C8" stroke-width="2" stroke-miterlimit="10"/>
<path d="M9.03906 13.9886C8.21006 13.9886 7.53906 13.0956 7.53906 11.9926C7.53906 10.8896 8.21006 9.99656 9.03906 9.99656C9.87106 9.88656 10.5211 10.8896 10.5391 11.9926C10.5391 13.0956 9.86806 13.9886 9.03906 13.9886Z" fill="#C8C8C8"/>
<path d="M14.9961 14.0117C15.8245 14.0117 16.4961 13.1163 16.4961 12.0117C16.4961 10.9071 15.8245 10.0117 14.9961 10.0117C14.1677 10.0117 13.4961 10.9071 13.4961 12.0117C13.4961 13.1163 14.1677 14.0117 14.9961 14.0117Z" fill="#C8C8C8"/>
<path d="M7 16C10.753 17.334 13.058 17.333 17 16" stroke="#C8C8C8" stroke-width="2" stroke-miterlimit="10" stroke-linecap="round"/>
</svg>
