<svg width="62" height="62" viewBox="0 0 62 62" fill="none" xmlns="http://www.w3.org/2000/svg">
<g id="ASI">
<path id="Vector" d="M0.929688 30.1744C0.929688 26.872 3.93921 24.193 7.65338 24.193C11.3675 24.193 14.3806 21.5171 14.3806 18.2147C14.3806 14.9122 17.3936 12.2333 21.1077 12.2333C24.8219 12.2333 27.8314 14.9122 27.8314 18.2147C27.8314 21.5171 24.8219 24.193 21.1077 24.193C17.3936 24.193 14.3806 26.872 14.3806 30.1744C14.3806 33.4768 17.3936 36.1527 21.1077 36.1527C24.8219 36.1527 27.8314 38.8316 27.8314 42.134C27.8314 45.4365 24.8219 48.1123 21.1077 48.1123C17.3936 48.1123 14.3806 45.4365 14.3806 42.134C14.3806 38.8316 11.3675 36.1527 7.65338 36.1527C3.93921 36.1527 0.929688 33.4768 0.929688 30.1744Z" fill="white"/>
<path id="Vector_2" d="M61.2208 30.1703C61.2208 33.4727 58.2113 36.1517 54.4971 36.1517C50.783 36.1517 47.77 38.8276 47.77 42.13C47.77 45.4324 44.7569 48.1114 41.0428 48.1114C37.3286 48.1114 34.3191 45.4324 34.3191 42.13C34.3191 38.8276 37.3286 36.1517 41.0428 36.1517C44.7569 36.1517 47.77 33.4727 47.77 30.1703C47.77 26.8679 44.7569 24.192 41.0428 24.192C37.3286 24.192 34.3191 21.513 34.3191 18.2106C34.3191 14.9082 37.3286 12.2323 41.0428 12.2323C44.7569 12.2323 47.77 14.9082 47.77 18.2106C47.77 21.513 50.783 24.192 54.4971 24.192C58.2113 24.192 61.2208 26.8679 61.2208 30.1703Z" fill="white"/>
<path id="Vector_3" d="M31.1393 35.8923C34.7491 35.8923 37.6755 33.2904 37.6755 30.0807C37.6755 26.871 34.7491 24.269 31.1393 24.269C27.5294 24.269 24.603 26.871 24.603 30.0807C24.603 33.2904 27.5294 35.8923 31.1393 35.8923Z" fill="white"/>
</g>
</svg>
