<svg width="24" height="24" viewBox="0 0 24 24" fill="none" xmlns="http://www.w3.org/2000/svg">
<path d="M7 8C9.757 8 12 10.243 12 13C12 15.757 9.757 18 7 18C4.243 18 2 15.757 2 13C2 10.243 4.243 8 7 8ZM7 6C3.134 6 0 9.134 0 13C0 16.866 3.134 20 7 20C10.866 20 14 16.866 14 13C14 9.134 10.866 6 7 6Z" fill="#C8C8C8"/>
<path d="M18 8.693C18.409 9.275 19 10.774 19 13C19 15.226 18.409 16.725 18 17.307C17.591 16.725 17 15.226 17 13C17 10.774 17.591 9.275 18 8.693ZM18 6.5C16.343 6.5 15 9.41 15 13C15 16.59 16.343 19.5 18 19.5C19.657 19.5 21 16.59 21 13C21 9.41 19.657 6.5 18 6.5Z" fill="#C8C8C8"/>
<path d="M23 18C23.5523 18 24 15.7614 24 13C24 10.2386 23.5523 8 23 8C22.4477 8 22 10.2386 22 13C22 15.7614 22.4477 18 23 18Z" fill="#C8C8C8"/>
</svg>
