<?xml version="1.0" encoding="UTF-8"?><svg xmlns="http://www.w3.org/2000/svg" viewBox="0 0 799.25 267.57"><defs><style>.d{fill:#fff;}.e{fill:none;stroke:#fff;stroke-miterlimit:10;stroke-width:9.58px;}</style></defs><g id="a"/><g id="b"><g id="c"><g><g><path class="d" d="M355.65,85.06l-9.28-1.28c-9.17-1.28-13.54-4.69-13.54-10.77,0-7.04,6.18-11.51,15.57-11.51s15.99,4.48,16.31,11.73h10.98c-.32-13.01-10.55-21.11-27.29-21.11s-26.65,8.42-26.65,21.54c0,11.19,7.14,18.23,21.43,20.15l9.81,1.39c8.53,1.17,12.69,5.12,12.69,11.62,0,8.1-6.5,13.43-16.74,13.43-11.51,0-18.55-5.76-18.66-14.82h-10.98c.11,15.03,11.19,24.31,29.64,24.31,17.27,0,27.83-9.28,27.83-23.56,0-12.05-7.25-19.19-21.11-21.11Z"/><rect class="d" x="385.92" y="76.95" width="10.34" height="51.28"/><rect class="d" x="385.28" y="54.35" width="11.51" height="12.26"/><path class="d" d="M418.44,98.6c0-8.32,5.22-13.75,13.11-13.75s12.05,4.26,12.05,13.43v29.96h10.34v-30.92c0-14.18-7.89-21.86-20.47-21.86-6.93,0-13.11,2.67-16.21,8.21v-6.72h-9.17v51.28h10.34v-29.64Z"/><path class="d" d="M494.56,119.6h-18.66c-2.67,0-5.01-1.39-5.01-4.16s2.03-4.16,5.01-4.16h8.85c11.62,0,19.94-6.93,19.94-17.59v-5.44c0-1.6,.64-2.24,2.24-2.24h8.21v-9.06h-7.57c-3.62,0-6.4,1.28-6.4,6.4v1.6c-2.13-5.33-8.74-9.49-16.95-9.49-12.79,0-20.47,7.57-20.47,17.59,0,4.8,2.03,9.81,6.82,13.01-5.97,1.49-8.85,5.22-8.85,9.81,0,3.31,1.81,6.4,4.69,8.32-4.37,2.13-6.72,6.08-6.72,10.45,0,7.46,5.12,12.79,16.53,12.79h17.7c11.73,0,16.74-6.29,16.74-14.71s-6.29-13.11-16.1-13.11Zm-10.34-36.04c6.61,0,10.55,3.84,10.55,9.81s-3.84,9.81-10.55,9.81-10.55-3.84-10.55-9.81,3.84-9.81,10.55-9.81Zm9.06,55.97h-15.89c-5.65,0-7.78-2.56-7.78-5.86s2.35-6.18,8.1-6.18h16.1c4.16,0,6.93,2.03,6.93,5.54,0,4.58-3.41,6.5-7.46,6.5Z"/><path class="d" d="M564.92,128.24v-51.28h-10.34v29.64c0,8.21-5.01,13.75-12.79,13.75s-11.73-4.26-11.73-13.43v-29.96h-10.34v30.92c0,14.18,7.68,21.86,20.15,21.86,6.61,0,12.47-2.35,15.89-7.36v5.86h9.17Z"/><path class="d" d="M586.78,128.24h10.13v-9.06h-6.5c-2.67,0-3.62-1.17-3.62-3.84V53.6h-10.34V118.53c0,6.93,3.09,9.7,10.34,9.7Z"/><path class="d" d="M617.59,97.21c-12.58,.75-18.76,7.36-18.76,16.53,0,9.81,7.46,15.99,19.3,15.99,8,0,14.07-3.09,17.06-8.32v1.49c0,3.41,2.03,5.33,5.54,5.33h8.32v-8.53h-4.37c-1.17,0-1.71-.53-1.71-1.71v-25.06c0-11.3-7.14-17.49-19.4-17.49-13.75,0-21,5.23-22.18,15.78h10.34c.85-5.44,4.26-7.25,11.09-7.25s10.34,2.77,10.34,9.49v2.88l-15.57,.85Zm15.57,10.45c0,8.74-5.54,13.54-13.86,13.54-6.29,0-10.13-3.09-10.13-7.78,0-4.16,3.09-7.57,9.7-8l14.29-1.07v3.31Z"/><path class="d" d="M664.81,85.27v-8.32h-9.17v51.28h10.34v-31.67c0-6.93,2.67-10.55,9.06-10.55h10.77v-9.06h-9.81c-6.08,0-9.92,3.2-11.19,8.32Z"/><rect class="d" x="689.65" y="54.35" width="11.51" height="12.26"/><rect class="d" x="690.29" y="76.95" width="10.34" height="51.28"/><path class="d" d="M787.63,76.95l-15.14,36.14-15.14-36.14h-27.93v-15.35h-10.34v15.35h-13.43v9.06h13.43v29.85c0,8.85,3.84,12.37,12.69,12.37h13.75v-9.06h-10.66c-3.94,0-5.44-1.6-5.44-5.33v-27.83h16.1v-9.06l21.53,47.76-4.48,9.7c-1.17,2.67-2.77,3.73-6.29,3.73h-9.17v9.28h11.51c7.14,0,10.13-2.56,12.47-7.89l28.15-62.58h-11.62Z"/><polygon class="d" points="324.3 223.49 334.97 223.49 334.97 190.33 369.08 190.33 369.08 180.31 334.97 180.31 334.97 158.88 369.08 158.88 369.08 148.86 324.3 148.86 324.3 223.49"/><rect class="d" x="377.29" y="149.6" width="11.51" height="12.26"/><rect class="d" x="377.93" y="172.21" width="10.34" height="51.28"/><path class="d" d="M425.48,170.71c-6.93,0-13.11,2.67-16.21,8.21v-6.72h-9.17v51.28h10.34v-29.64c0-8.32,5.22-13.75,13.11-13.75s12.05,4.26,12.05,13.43v29.96h10.34v-30.92c0-14.18-7.89-21.86-20.47-21.86Z"/><path class="d" d="M496.91,213.25v-25.05c0-11.3-7.14-17.49-19.4-17.49-13.75,0-21,5.22-22.18,15.78h10.34c.85-5.44,4.26-7.25,11.09-7.25s10.34,2.77,10.34,9.49v2.88l-15.57,.85c-12.58,.75-18.77,7.36-18.77,16.53,0,9.81,7.46,15.99,19.3,15.99,8,0,14.07-3.09,17.06-8.32v1.49c0,3.41,2.03,5.33,5.54,5.33h8.32v-8.53h-4.37c-1.17,0-1.71-.53-1.71-1.71Zm-9.81-10.34c0,8.74-5.54,13.54-13.86,13.54-6.29,0-10.13-3.09-10.13-7.78,0-4.16,3.09-7.57,9.7-8l14.29-1.07v3.31Z"/><path class="d" d="M534.96,170.71c-6.93,0-13.11,2.67-16.21,8.21v-6.72h-9.17v51.28h10.34v-29.64c0-8.32,5.22-13.75,13.11-13.75s12.05,4.26,12.05,13.43v29.96h10.34v-30.92c0-14.18-7.89-21.86-20.47-21.86Z"/><path class="d" d="M588.8,215.6c-8.85,0-14.93-6.82-14.93-17.81s5.97-17.7,15.14-17.7c7.36,0,11.62,4.16,12.58,8.96h10.56c-1.17-10.77-10.02-18.34-23.03-18.34-15.46,0-25.91,11.3-25.91,27.29s9.92,26.97,25.27,26.97c13.97,0,22.5-9.17,23.88-19.4h-10.55c-1.07,5.97-6.08,10.02-13.01,10.02Z"/><path class="d" d="M640.72,170.71c-14.61,0-24.84,10.34-24.84,26.87s10.23,27.4,25.59,27.4c11.83,0,19.72-6.18,22.92-16.1h-10.55c-2.03,4.58-6.29,7.36-12.37,7.36-9.17,0-14.93-5.65-15.35-15.03h38.92c.21-2.13,.32-3.52,.32-4.9,0-15.67-9.38-25.59-24.63-25.59Zm14.18,22.39h-28.79c.43-8.32,5.97-14.07,14.61-14.07,9.06,0,14.18,5.65,14.18,13.54v.53Z"/></g><g><path class="d" d="M259.76,134.52c0-22.5-17-42.71-43.8-56.37,.06-1.1,.1-2.2,.1-3.31,0-37.18-36.91-67.43-82.28-67.43S51.51,37.67,51.51,74.85c0,1.11,.04,2.21,.1,3.31C24.8,91.81,7.81,112.01,7.81,134.52s16.98,42.68,43.76,56.34c-.02,.61-.06,1.22-.06,1.83,0,37.22,36.91,67.5,82.28,67.5s82.28-30.28,82.28-67.5c0-.61-.04-1.22-.06-1.83,26.78-13.66,43.76-33.85,43.76-56.34ZM53.01,74.85c0-36.35,36.24-65.93,80.78-65.93s80.78,29.57,80.78,65.93c0,.86-.04,1.72-.08,2.57-21.63-10.69-49.39-17.17-79.66-17.31-.09-.82-.19-1.64-.28-2.48v-6.99h-1.5v7.26c-.08,.75-.17,1.48-.25,2.21-30.29,.14-58.06,6.63-79.69,17.31-.04-.85-.08-1.71-.08-2.57Zm35.51,54.57c-20.09-11.14-33.73-29.47-35.33-50.42,21.45-10.71,49.16-17.23,79.42-17.39-5.47,46.2-11.83,60.47-44.09,67.82Zm43.95,78.02c-30.25-.18-57.94-6.72-79.38-17.44,1.01-20.39,13.39-38.43,32.09-49.98,34.88,7.09,41.67,20.59,47.29,67.42Zm49.92-67.42c18.71,11.55,31.08,29.59,32.09,49.98-21.43,10.71-49.11,17.25-79.35,17.44,5.62-46.83,12.38-60.33,47.26-67.42Zm-47.39-78.41c30.25,.17,57.94,6.69,79.39,17.39-1.6,20.95-15.24,39.28-35.33,50.42-32.25-7.35-38.6-21.61-44.06-67.82ZM9.33,135.8h3.05v-1.5h-3.07c.11-21.73,16.52-41.25,42.43-54.58,1.82,20.7,15.07,38.83,34.61,50.17-8.19,1.73-17.97,3.08-29.71,4.41h-6.33v1.5h5.93c10.37,1.17,19.23,2.36,26.82,3.8-18.16,11.7-30.21,29.52-31.46,49.65-25.41-13.11-41.65-32.18-42.28-53.45Zm205.23,56.89c0,36.4-36.24,66-80.78,66s-80.78-29.61-80.78-66c0-.37,.03-.73,.03-1.09,21.61,10.69,49.35,17.18,79.61,17.34,.13,1.1,.26,2.22,.39,3.35v4.7h1.5v-4.43c.14-1.23,.28-2.43,.42-3.62,30.24-.16,57.97-6.65,79.58-17.34,0,.37,.03,.73,.03,1.09Zm1.39-3.45c-1.24-20.13-13.29-37.94-31.45-49.65,7.58-1.44,16.44-2.62,26.82-3.8h5.93v-1.5h-6.33c-11.74-1.33-21.52-2.68-29.71-4.41,19.54-11.34,32.79-29.47,34.61-50.17,25.91,13.33,42.32,32.85,42.43,54.58h-3.07v1.5h3.05c-.63,21.26-16.87,40.34-42.28,53.45Z"/><rect class="d" x="133.03" y="9" width="1.5" height="3.82"/><rect class="d" x="133.03" y="220.77" width="1.5" height="7.56"/><rect class="d" x="133.03" y="39.29" width="1.5" height="7.56"/><rect class="d" x="133.03" y="243.45" width="1.5" height="7.56"/><rect class="d" x="133.03" y="232.11" width="1.5" height="7.56"/><rect class="d" x="133.03" y="16.6" width="1.5" height="7.56"/><rect class="d" x="133.03" y="27.94" width="1.5" height="7.56"/><rect class="d" x="133.03" y="254.8" width="1.5" height="3.82"/><rect class="d" x="38.94" y="134.3" width="7.59" height="1.5"/><rect class="d" x="243.8" y="134.3" width="7.59" height="1.5"/><rect class="d" x="232.42" y="134.3" width="7.59" height="1.5"/><rect class="d" x="16.17" y="134.3" width="7.59" height="1.5"/><rect class="d" x="27.55" y="134.3" width="7.59" height="1.5"/><rect class="d" x="221.04" y="134.3" width="7.59" height="1.5"/></g><circle class="e" cx="133.78" cy="133.78" r="128.99"/></g></g></g></svg>