<svg width="24" height="24" viewBox="0 0 24 24" fill="none" xmlns="http://www.w3.org/2000/svg">
<path d="M21.4509 3.37634C20.9659 2.96134 20.2419 2.88434 19.5159 3.17134C19.0659 3.34834 12.0149 6.31534 5.44191 9.08234L3.27091 9.99634C2.42991 10.3373 2.00391 10.8903 2.00391 11.6373C2.00391 12.1603 2.22591 12.8713 3.28191 13.2893L6.94891 14.7563C7.26591 15.7073 8.00191 17.9153 8.18691 18.5023C8.29691 18.8503 8.57491 19.7273 9.27691 19.9323C9.42091 19.9813 9.57091 20.0063 9.72391 20.0063C10.1669 20.0063 10.4859 19.8003 10.6419 19.6803L12.9709 17.7103L15.8019 20.3273C15.9109 20.4383 16.4869 20.9993 17.2619 20.9993C18.2289 20.9993 18.9629 20.1943 19.1159 19.4153C19.1989 18.9883 21.9279 5.28634 21.9279 5.28834C22.1729 4.18934 21.7339 3.61934 21.4509 3.37634ZM17.1669 18.8653L13.0299 15.0393L9.99991 17.6043C9.64091 16.4973 8.69891 13.6823 8.69891 13.6823L8.55291 13.2433L4.53191 11.6353L6.21891 10.9263C10.5179 9.11634 18.1749 5.89334 19.9109 5.17134C19.5339 7.06134 17.4789 17.3783 17.1669 18.8653Z" fill="#C8C8C8"/>
<path d="M16.7994 8C16.6744 8 16.5054 8.119 16.4154 8.175C15.1274 8.978 8.66944 12.653 6.89844 13.659C7.39744 13.859 7.74944 14 7.74944 14C7.74944 14 8.90044 17.445 9.13944 18.2C9.37844 18.956 9.57044 18.974 9.57044 18.974C9.62344 18.997 9.67544 19.006 9.72344 19.006C9.76244 19.006 9.78944 18.992 9.82244 18.983L10.9994 14.375C10.9994 14.375 16.3624 8.947 16.6854 8.631C16.9454 8.378 16.9994 8.289 16.9994 8.201C16.9994 8.084 16.9384 8 16.7994 8Z" fill="#C8C8C8"/>
</svg>
